<?xml version="1.0" encoding="utf-8"?>
<!-- Generator: Adobe Illustrator 25.0.0, SVG Export Plug-In . SVG Version: 6.00 Build 0)  -->
<svg version="1.1" id="Layer_1" xmlns="http://www.w3.org/2000/svg" xmlns:xlink="http://www.w3.org/1999/xlink" x="0px" y="0px"
	 viewBox="0 0 133.4 19.7" style="enable-background:new 0 0 133.4 19.7;" xml:space="preserve">
<style type="text/css">
	.st0{fill:#FFFFFF;}
	.st1{fill:#F1C400;}
</style>
<path class="st0" d="M7.3,7.7c-0.1,0-0.2-0.1,0-0.1C8.1,7.4,9.7,7,10,5.6c0.1-0.6,0.2-1.1-0.1-1.8c-0.4-1.1-1.8-2-3.7-2.1
	c0,0-5.5,0-5.7,0C0.4,1.8,0,2,0,2.3c0,0,0,11.2,0,11.4c0,0.1,0.2,0.6,0.9,0.6c0.7,0,4.3,0.1,5.7,0c0,0,4.1-0.2,4.1-3.4
	C10.7,8.1,8.1,7.8,7.3,7.7 M3,6.9V3.7c0-0.3,0.4-0.4,0.7-0.5c0.2-0.1,1.3-0.1,1.8,0s2,0.1,2.1,1.8C7.7,6.6,6.5,7,6,7.2
	C5.5,7.4,4,7.4,3.4,7.3C2.9,7.3,3,7,3,6.9 M6.2,13C5.7,13,3.7,13,3.4,13C3,13,3,12.7,3,12.7V9c0-0.3,0.3-0.4,0.6-0.4
	c0.2,0,1.6,0,2.2,0c0.8,0,2.3,0.4,2.3,2.1C8.2,12.5,6.8,12.9,6.2,13"/>
<path class="st0" d="M15.4,10.5c0,0,1.7,0.1,2.9,0s2.5-0.8,2.7-1.8c0.1-1,0-2.2-1.6-2.9c-1-0.4-2.7-0.8-4.7-0.1
	c-1.5,0.5-2.1,1.5-2.4,2c-0.4,0.8-0.6,2.3-0.3,3.7c0.2,1.2,0.8,2,1.7,2.6c1.9,1.2,4.6,0.7,5.3,0.5c0.7-0.2,1.6-0.4,1.7-0.5
	s0.3-0.1,0-0.5c-0.1-0.2-0.3-0.4-0.5-0.5c-0.2-0.2-0.2-0.3-1,0c0,0-2.8,1-4-0.1C14,11.7,14.2,10.5,15.4,10.5 M14.2,7.7
	c0.7-1.3,3.5-1.4,4.2-0.3c0.7,1.2-0.4,1.9-1,1.9c-0.6,0.1-1.7,0.2-2.6-0.1C14,9.1,14,8.1,14.2,7.7"/>
<path class="st0" d="M22,2v12.1c0,0.1,0.1,0.4,0.5,0.4h1.6c0,0,0.4,0,0.4-0.4V1.5c0-0.1-0.1-0.4-0.5-0.3s-1.5,0.2-1.6,0.2
	C22.3,1.5,22,1.6,22,2"/>
<path class="st0" d="M26.5,2v12.1c0,0.1,0.1,0.4,0.5,0.4h1.6c0,0,0.4,0,0.4-0.4V1.5c0-0.1-0.1-0.4-0.5-0.3s-1.5,0.2-1.6,0.2
	C26.8,1.5,26.5,1.6,26.5,2"/>
<path class="st0" d="M30.3,5.6c-0.1,0-0.5,0-0.4,0.5c0.1,0.4,2.4,8.1,2.4,8.1s0.1,0.4,0.4,0.4h1.1c0,0,0.3,0,0.4-0.2
	c0.1-0.2,2.3-5.2,2.3-5.2s0.1-0.3,0.4-0.3c0.2,0,0.4,0,0.5,0.3c0.3,0.8,2.1,5.1,2.1,5.1s0.1,0.2,0.3,0.2c0.2,0,1.3,0,1.3,0
	c0,0,0.2,0,0.3-0.3l2.7-8c0,0,0.3-0.5-0.3-0.5c-0.6,0-1.4,0-1.4,0S41.9,5.5,41.7,6c-0.2,0.5-1.4,4.5-1.4,4.5s-0.1,0.3-0.2,0.3
	c-0.1,0-0.2-0.1-0.3-0.3C39.6,9.8,38.2,6,38.2,6s-0.1-0.4-0.4-0.4c-0.3,0-1.2,0-1.2,0s-0.2-0.1-0.4,0.3c-0.2,0.4-1.9,4.6-1.9,4.6
	s-0.2,0.3-0.3,0.3c-0.1,0-0.2-0.1-0.2-0.2C33.5,10,32.4,6,32.4,6S32.3,5.6,32,5.6S30.5,5.6,30.3,5.6"/>
<path class="st0" d="M51.5,6.4c-0.5-0.6-1.4-1-2.8-1c-4,0-3.8,0.7-3.7,0.8s0.2,0.6,0.3,0.6c0,0.1,0,0.3,0.6,0.1c0,0,1.9-0.6,3.2,0.1
	c0.6,0.3,0.8,0.8,0.8,1.3c0,0.5-0.3,1-1,1c-1.4,0.1-3.6-0.1-4.7,1c-0.5,0.6-1.4,2.5,0.5,3.8c1.5,1.1,4.5,0.6,5.4,0.5
	c0.8-0.1,1.2-0.1,1.5,0c0.5,0.1,0.8-0.1,0.8-0.5V8.9C52.3,8.9,52.5,7.5,51.5,6.4 M50.2,12.6c0,0.9-1.3,1.3-2.7,1.2
	c-1.2-0.1-1.5-0.7-1.5-1.6c0-0.9,0.6-1.4,1.1-1.5c0.7-0.2,1.9-0.1,1.9-0.1C50.4,10.7,50.2,11.6,50.2,12.6"/>
<path class="st0" d="M54,6.1v5.8c0,0,0,2.2,2.3,2.6c2.3,0.5,4.4-0.7,4.4-0.7s0.2,1.3-0.2,1.8c-0.7,0.9-2.2,1.2-2.6,1.4
	c-0.3,0.1-0.7,0.3-0.5,0.6s0.5,0.6,0.5,0.7c0.1,0.1,0.2,0.2,0.6,0.1s2.8-0.8,3.6-1.7c0,0,1.1-0.9,1.1-3.2V6c0,0,0-0.4-0.3-0.4h-1.7
	c0,0-0.5,0-0.5,0.4v5.6c0,0.1-0.3,1.4-2,1.4c-1.8,0-2.2-1.2-2.2-1.4V6.2c0,0,0-0.6-0.4-0.6h-1.7C54.4,5.6,54,5.6,54,6.1"/>
<path class="st0" d="M56.9,17.9c-0.1-0.1-0.2-0.3-0.4-0.4c-0.2-0.1-0.5,0-0.7,0c0,0-4.4,1-9.2,0.9C41.5,18.2,36.7,17,36,17
	c-0.1,0-0.2,0-0.2,0c0,0,0,0.1,0.2,0.2c0.2,0.1,4.1,2,10.4,2.5c5.1,0.3,10.3-0.9,10.5-0.9c0.3-0.1,0.3-0.3,0.2-0.5
	C57,18.1,56.9,18,56.9,17.9"/>
<polyline class="st1" points="68.2,0 68.2,19.7 67.3,19.7 67.3,0 "/>
<path class="st0" d="M126,14.5V7.8c0.6-1.1,1.7-1.8,3.2-1.8c2.1,0,3.2,1.2,3.2,2.9v5.6h0.9V9c0-2.2-1.4-3.7-4.1-3.7
	c-1.3,0-2.5,0.7-3.2,1.5h0V5.4h-0.9v9.1L126,14.5L126,14.5z M121.9,10c0,2.2-1.6,3.9-3.9,3.9c-2.2,0-3.9-1.7-3.9-3.9
	s1.6-3.9,3.9-3.9C120.3,6.1,121.9,7.7,121.9,10 M122.8,10c0-2.7-2-4.8-4.8-4.8c-2.8,0-4.8,2-4.8,4.8s2,4.8,4.8,4.8
	C120.8,14.7,122.8,12.7,122.8,10 M106.8,6.1c1.2,0,2.4,0.7,3.1,1.7v4.5c-0.7,1.1-1.8,1.6-3.1,1.6c-2,0-3.7-1.7-3.7-3.9
	S104.8,6.1,106.8,6.1 M110.1,13.2c0.1,0.9,0.9,1.3,1.5,1.3c0.2,0,0.3,0,0.3,0c-0.1-0.3-0.1-0.5-0.2-0.8c0,0-0.1,0-0.2,0
	c-0.4,0-0.8-0.3-0.8-1.1V1.3h-0.9v5.3h0c-0.8-0.8-1.8-1.3-3-1.3c-2.6,0-4.6,2-4.6,4.8s2.1,4.8,4.6,4.8
	C108.1,14.7,109.3,14.1,110.1,13.2L110.1,13.2z M92.7,14.5V7.8c0.6-1.1,1.7-1.8,3.2-1.8c2.1,0,3.2,1.2,3.2,2.9v5.6h0.9V9
	c0-2.2-1.4-3.7-4.1-3.7c-1.3,0-2.5,0.7-3.2,1.5h0V5.4h-0.9v9.1L92.7,14.5L92.7,14.5z M88.6,10c0,2.2-1.6,3.9-3.9,3.9
	c-2.2,0-3.9-1.7-3.9-3.9s1.6-3.9,3.9-3.9C86.9,6.1,88.6,7.7,88.6,10 M89.5,10c0-2.7-2-4.8-4.8-4.8c-2.8,0-4.8,2-4.8,4.8
	s2,4.8,4.8,4.8C87.5,14.7,89.5,12.7,89.5,10 M72.2,14.5h7.2v-0.8h-6.3V1.8h-0.9L72.2,14.5L72.2,14.5z"/>
</svg>
